# xmcd CD database file
#
# Track frame offsets:
#	150
#	16195
#	27275
#	42215
#	62618
#	80536
#	96025
#	110644
#	124469
#	137099
#	154824
#	172210
#
# Disc length: 2488 seconds
#
# Revision: 2
# Processed by: cddbd v1.5.2PL0 Copyright (c) Steve Scherf et al.
# Submitted via: CDex 1.51
#
DISCID=9f09b60c
DTITLE=Fiddlers' Sons - Beaches of Home
DYEAR=1998
DGENRE=Folk
TTITLE0=Charlottetown Privateers
TTITLE1=Bold O'Donahue
TTITLE2=Beaches of Home
TTITLE3=The Old Man, The Captain, and Me
TTITLE4=Tim Finnigan
TTITLE5=Set in "A"
TTITLE6=Pat Murphy Died
TTITLE7=Mine In Ireland
TTITLE8=Homeward Bound Set
TTITLE9=Two Brothers
TTITLE10=Peter Emberley
TTITLE11=Stubbert Set
EXTD=YEAR: 1998
EXTT0=
EXTT1=
EXTT2=
EXTT3=
EXTT4=
EXTT5=
EXTT6=
EXTT7=
EXTT8=
EXTT9=
EXTT10=
EXTT11=
PLAYORDER=
